# xmcd
#
# Track frame offsets:
#	150
#	10008
#	26755
#	37438
#	55309
#	67579
#	81647
#	93436
#	106677
#	120042
#	133846
#	147824
#	160615
#	173385
#	185090
#	195020
#	208441
#	219433
#
# Disc length: 3092 seconds
#
# Revision: 1
# Processed by: cddbd v1.5.2PL0 Copyright (c) Steve Scherf et al.
# Submitted via: audiograbber 1.83.01
#
DISCID=ef0c1212
DTITLE=Various Artist - Les Legendes du Blues - Roots
DYEAR=2009
DGENRE=Blues
TTITLE0=Buddy Guy - First time I met the blues
TTITLE1=Muddy Waters - Sad sad day
TTITLE2=Sonny Terry and Brownie McGhee - Stranger blues
TTITLE3=James Cotton - V-8 ford blues
TTITLE4=Neal Pattman - Momma whoopin' blues
TTITLE5=Rufus McKenzie - Slavery time blues
TTITLE6=Samuel Turner Stevens - Railroadin' and gamblin'
TTITLE7=Sleepy John Estes - Jailhouse blues
TTITLE8=Lightnin' Hopkins - Mojo hand
TTITLE9=Kokomo Arnold - Grandpa got drunk
TTITLE10=Arthur "Big Boy" Crtudup - My mamma don't allow me
TTITLE11=Blind Boy Fuller - Money spending woman
TTITLE12=Howlin' Wolf - I've got a woman
TTITLE13=Mississipi Fred Mc Dowell - Good morning little school girl
TTITLE14=Leadbelly - On monday
TTITLE15=Skip James - Devil got my woman
TTITLE16=JB. Lenoir - Mama tolk to your daughter
TTITLE17=Blind Willie Mc Tell - You was born to die
EXTD=
EXTT0=
EXTT1=
EXTT2=
EXTT3=
EXTT4=
EXTT5=
EXTT6=
EXTT7=
EXTT8=
EXTT9=
EXTT10=
EXTT11=
EXTT12=
EXTT13=
EXTT14=
EXTT15=
EXTT16=
EXTT17=
PLAYORDER=
